<?xml version="1.0" encoding="UTF-8" standalone="no"?>
<!-- Created with Inkscape (http://www.inkscape.org/) -->

<svg
   xmlns:dc="http://purl.org/dc/elements/1.1/"
   xmlns:cc="http://creativecommons.org/ns#"
   xmlns:rdf="http://www.w3.org/1999/02/22-rdf-syntax-ns#"
   xmlns:svg="http://www.w3.org/2000/svg"
   xmlns="http://www.w3.org/2000/svg"
   xmlns:sodipodi="http://sodipodi.sourceforge.net/DTD/sodipodi-0.dtd"
   xmlns:inkscape="http://www.inkscape.org/namespaces/inkscape"
   width="511.99997"
   height="48.956398"
   viewBox="0 0 135.46666 12.953047"
   version="1.1"
   id="svg8"
   inkscape:version="0.92.2 5c3e80d, 2017-08-06"
   sodipodi:docname="header logo.svg">
  <defs
     id="defs2" />
  <sodipodi:namedview
     id="base"
     pagecolor="#ffffff"
     bordercolor="#666666"
     borderopacity="1.0"
     inkscape:pageopacity="0.0"
     inkscape:pageshadow="2"
     inkscape:zoom="0.98994949"
     inkscape:cx="166.40153"
     inkscape:cy="-66.749422"
     inkscape:document-units="px"
     inkscape:current-layer="layer1"
     showgrid="false"
     units="px"
     showborder="false"
     inkscape:snap-global="true"
     inkscape:window-width="1440"
     inkscape:window-height="855"
     inkscape:window-x="0"
     inkscape:window-y="1"
     inkscape:window-maximized="1"
     fit-margin-top="0"
     fit-margin-left="0"
     fit-margin-right="0"
     fit-margin-bottom="0">
    <inkscape:grid
       type="xygrid"
       id="grid835"
       originx="-31.681571"
       originy="-139.51091" />
  </sodipodi:namedview>
  <metadata
     id="metadata5">
    <rdf:RDF>
      <cc:Work
         rdf:about="">
        <dc:format>image/svg+xml</dc:format>
        <dc:type
           rdf:resource="http://purl.org/dc/dcmitype/StillImage" />
        <dc:title></dc:title>
      </cc:Work>
    </rdf:RDF>
  </metadata>
  <g
     inkscape:label="Layer 1"
     inkscape:groupmode="layer"
     id="layer1"
     transform="translate(-31.681571,-144.53604)">
    <path
       style="font-style:normal;font-variant:normal;font-weight:900;font-stretch:normal;font-size:medium;line-height:1.25;font-family:'Cinzel Decorative';-inkscape-font-specification:'Cinzel Decorative Heavy';letter-spacing:0px;word-spacing:0px;fill:#2e2e2e;fill-opacity:1;stroke:none;stroke-width:0.29806083"
       d="m 33.891076,146.20528 v 0.11934 h 0.154851 c 0.206655,0 0.381446,0.0754 0.524516,0.22646 0.151021,0.14306 0.230737,0.31785 0.238684,0.52451 v 6.48574 c 0,0.40536 -0.03189,0.78313 -0.09547,1.13286 -0.0033,0.0222 -0.0086,0.0417 -0.01222,0.0635 -0.324722,-0.0307 -0.647027,-0.056 -0.953562,-0.0658 -0.435714,-0.0139 -0.83294,-8.9e-4 -1.161972,0.0524 -0.32905,0.0533 -0.595666,0.14169 -0.7632,0.326 -0.08376,0.0922 -0.136968,0.21318 -0.140878,0.34289 -0.0039,0.12971 0.0372,0.2644 0.111772,0.40517 0.149156,0.28155 0.245337,0.47737 0.757677,0.81146 0.702995,0.45841 1.427312,0.54437 2.007535,0.54437 0.588176,0 1.084942,-0.1711 1.490305,-0.51287 0.352087,-0.3028 0.621799,-0.685 0.81792,-1.13753 0.676625,0.15902 2.231919,0.29923 3.365993,0.29923 h 48.478548 c -0.215966,-0.18069 -0.429976,-0.37355 -0.639781,-0.58972 -3e-6,-8.9e-4 -3e-6,-0.001 0,-0.002 l -0.0099,-0.0105 H 40.233021 c -0.875831,0 -2.597449,-0.0741 -3.193675,-0.16126 0.139833,-0.45314 0.213647,-0.93872 0.213647,-1.46178 v -6.52182 c 0.008,-0.14307 0.04411,-0.27004 0.107699,-0.38131 0.151018,-0.2464 0.369363,-0.36967 0.655501,-0.36967 h 0.154852 v -0.11934 z m -0.151943,8.93218 c -0.284192,0 0.546352,0.043 0.852517,0.0856 -0.01893,0.0688 0.02298,-0.0636 0,0 -0.06359,0.18281 -0.171883,0.41694 -0.283158,0.5918 -0.111275,0.17487 -0.244377,0.31141 -0.393533,0.4174 -0.152923,0.10867 -0.308025,0.19447 -0.476781,0.21423 -0.307617,0.036 -0.618414,-0.0489 -0.813235,-0.23379 -0.462728,-0.43914 -0.378687,-0.31678 -0.502844,-0.53523 -0.07452,-0.13111 -0.04691,-0.17113 -0.0479,-0.21506 -0.0015,-0.0618 -0.0073,-0.0786 0.03509,-0.12533 0.08486,-0.0934 0.226633,-0.10286 0.524935,-0.15128 0.298309,-0.0484 1.529231,-0.0483 1.104921,-0.0483 z m 55.722825,0.083 c 0.103618,0.0714 0.207334,0.14474 0.310869,0.21481 -0.112092,-0.0992 -0.169403,-0.15042 -0.241593,-0.21481 z m 1.509518,0 c 0.105385,0.0624 0.211438,0.12523 0.374322,0.21248 0.0037,0.001 0.0074,0.003 0.01106,0.005 0.190703,0.10895 0.348389,0.16705 0.46223,0.18687 0.008,0.001 0.01595,0.003 0.02388,0.005 0.171167,0.0395 0.355124,0.0617 0.554789,0.0617 0.189373,0 0.368612,-0.0256 0.541401,-0.0768 0.199436,-0.0585 0.412916,0.028 0.515201,0.20899 h 62.997961 v -0.60253 z"
       id="path848"
       inkscape:connector-curvature="0"
       sodipodi:nodetypes="ccsccsccsssssssccsccccscsccscccsccssssssssssccccccccscccccc" />
    <path
       inkscape:connector-curvature="0"
       id="path850"
       style="font-style:normal;font-variant:normal;font-weight:normal;font-stretch:normal;font-size:medium;line-height:1.25;font-family:'Cinzel Decorative';-inkscape-font-specification:'Cinzel Decorative';letter-spacing:0px;word-spacing:0px;fill:#2e2e2e;fill-opacity:1;stroke:none;stroke-width:0.29806083"
       d="m 40.267526,147.2425 q 1.2757,-1.20417 3.302514,-1.20417 2.038736,0 3.314437,1.20417 1.2757,1.19224 1.2757,3.13559 0,1.94336 -1.2757,3.14752 -1.275701,1.19225 -3.314437,1.19225 -2.026814,0 -3.302514,-1.19225 -1.275701,-1.20416 -1.275701,-3.14752 0,-1.94335 1.275701,-3.13559 z m 0.643811,6.02082 q 1.013407,1.09687 2.658703,1.09687 1.645296,0 2.64678,-1.09687 1.013407,-1.09687 1.013407,-2.88523 0,-1.78837 -1.013407,-2.88522 -1.001484,-1.09687 -2.64678,-1.09687 -1.645296,0 -2.658703,1.09687 -1.001484,1.09685 -1.001484,2.88522 0,1.78836 1.001484,2.88523 z" />
    <path
       inkscape:connector-curvature="0"
       id="path852"
       style="font-style:normal;font-variant:normal;font-weight:normal;font-stretch:normal;font-size:medium;line-height:1.25;font-family:'Cinzel Decorative';-inkscape-font-specification:'Cinzel Decorative';letter-spacing:0px;word-spacing:0px;fill:#2e2e2e;fill-opacity:1;stroke:none;stroke-width:0.29806083"
       d="m 49.348323,154.06212 q -0.03577,-0.16691 -0.03577,-0.64381 0,-0.47689 0.178837,-1.0134 h 0.107302 q -0.01192,0.13115 -0.01192,0.26229 0,0.72727 0.44113,1.21608 0.441129,0.47691 1.168399,0.47691 0.751113,0 1.22801,-0.45306 0.48882,-0.45305 0.48882,-1.13263 0,-0.6915 -0.464975,-1.12071 l -2.289107,-2.12219 q -0.643812,-0.59612 -0.643812,-1.44262 0,-0.84648 0.560354,-1.44261 0.572277,-0.60804 1.537994,-0.60804 0.453053,0 1.02533,0.11922 h 0.464975 v 1.46646 h -0.107302 q 0,-0.56035 -0.393441,-0.89419 -0.381518,-0.33382 -0.989562,-0.33382 -0.608044,0 -1.025329,0.40536 -0.405363,0.40537 -0.405363,1.01341 0,0.60805 0.476898,1.04917 l 2.348719,2.16989 q 0.596122,0.54843 0.596122,1.50223 0,0.95378 -0.608044,1.57376 -0.608044,0.60804 -1.621451,0.60804 -0.524587,0 -1.120709,-0.16692 -0.584199,-0.15498 -0.906105,-0.48882 z" />
    <path
       inkscape:connector-curvature="0"
       id="path854"
       style="font-style:normal;font-variant:normal;font-weight:normal;font-stretch:normal;font-size:medium;line-height:1.25;font-family:'Cinzel Decorative';-inkscape-font-specification:'Cinzel Decorative';letter-spacing:0px;word-spacing:0px;fill:#2e2e2e;fill-opacity:1;stroke:none;stroke-width:0.29806083"
       d="m 55.173176,154.43172 q 0.309984,0 0.524587,-0.2146 0.226526,-0.22653 0.238448,-0.53651 v -6.61695 q -0.01192,-0.30999 -0.238448,-0.52459 -0.214603,-0.21461 -0.524587,-0.21461 h -0.154991 v -0.11922 h 2.611013 v 0.11922 h -0.154993 q -0.309982,0 -0.536509,0.21461 -0.214604,0.2146 -0.226526,0.52459 v 6.61695 q 0,0.30998 0.226526,0.53651 0.226527,0.2146 0.536509,0.2146 h 0.154993 v 0.11922 h -2.611013 v -0.11922 z" />
    <path
       inkscape:connector-curvature="0"
       id="path856"
       style="font-style:normal;font-variant:normal;font-weight:normal;font-stretch:normal;font-size:medium;line-height:1.25;font-family:'Cinzel Decorative';-inkscape-font-specification:'Cinzel Decorative';letter-spacing:0px;word-spacing:0px;fill:#2e2e2e;fill-opacity:1;stroke:none;stroke-width:0.29806083"
       d="m 66.867781,154.43172 h 0.09538 v 0.11922 h -2.682548 v -0.11922 h 0.107302 q 0.250371,0 0.369595,-0.155 0.131147,-0.1669 0.131147,-0.30997 0,-0.14307 -0.04769,-0.28614 l -0.763035,-2.02682 h -3.219057 l -0.798803,2.03874 q -0.04769,0.14307 -0.04769,0.28614 0,0.13115 0.119224,0.29805 0.131146,0.155 0.381517,0.155 h 0.107302 v 0.11922 h -2.396408 v -0.11922 h 0.107302 q 0.29806,0 0.584199,-0.19076 0.286138,-0.19076 0.464974,-0.56035 l 2.69447,-6.41428 q 0.44113,-0.96571 0.44113,-1.228 h 0.107302 l 3.195213,7.64228 q 0.166913,0.36959 0.453052,0.56035 0.286138,0.19076 0.596122,0.19076 z m -5.865838,-3.1356 h 2.932919 l -1.430692,-3.8271 z" />
    <path
       inkscape:connector-curvature="0"
       id="path858"
       style="font-style:normal;font-variant:normal;font-weight:normal;font-stretch:normal;font-size:medium;line-height:1.25;font-family:'Cinzel Decorative';-inkscape-font-specification:'Cinzel Decorative';letter-spacing:0px;word-spacing:0px;fill:#2e2e2e;fill-opacity:1;stroke:none;stroke-width:0.29806083"
       d="m 73.35228,154.43172 q 0.309982,0 0.524586,-0.2146 0.226527,-0.22653 0.238449,-0.52459 v -3.08791 H 69.23904 v 3.08791 q 0,0.30999 0.226526,0.52459 0.226526,0.2146 0.53651,0.2146 h 0.154991 v 0.11922 h -2.611013 v -0.11922 h 0.154992 q 0.309983,0 0.524586,-0.2146 0.226527,-0.2146 0.238449,-0.52459 v -6.62887 q -0.01192,-0.30999 -0.238449,-0.52459 -0.214603,-0.21461 -0.524586,-0.21461 h -0.154992 v -0.11922 h 2.611013 v 0.11922 h -0.154991 q -0.309984,0 -0.53651,0.21461 -0.214604,0.2146 -0.226526,0.52459 v 3.18329 h 4.876275 v -3.18329 q -0.01192,-0.42921 -0.381518,-0.64381 -0.178836,-0.0954 -0.381517,-0.0954 h -0.154992 v -0.11922 h 2.611013 v 0.11922 h -0.154992 q -0.309983,0 -0.536509,0.22652 -0.214604,0.21461 -0.226526,0.52459 v 6.61696 q 0.01192,0.30998 0.226526,0.52459 0.226526,0.2146 0.536509,0.2146 h 0.154992 v 0.11922 h -2.611013 v -0.11922 z" />
    <path
       inkscape:connector-curvature="0"
       id="path860"
       style="font-style:normal;font-variant:normal;font-weight:900;font-stretch:normal;font-size:medium;line-height:1.25;font-family:'Cinzel Decorative';-inkscape-font-specification:'Cinzel Decorative Heavy';letter-spacing:0px;word-spacing:0px;fill:#2e2e2e;fill-opacity:1;stroke:none;stroke-width:0.29806083"
       d="m 93.113716,156.16047 q -0.727269,0.45306 -1.573761,0.45306 -0.739192,0 -1.537994,-0.44114 -0.822648,-0.44112 -1.609529,-1.25185 l -5.233948,-5.41279 v 4.1967 q 0,0.30998 0.214603,0.52459 0.214604,0.20268 0.512665,0.20268 h 0.226526 v 0.11922 h -4.363611 v -0.11922 h 0.226527 q 0.29806,0 0.512664,-0.20268 0.214604,-0.21461 0.214604,-0.52459 v -6.74809 q -1.836055,-1.95529 -3.219057,-1.95529 -0.345751,0 -0.667657,0.11922 l -0.05962,-0.10735 q 0.667655,-0.4769 1.442614,-0.4769 0.512664,0 1.049174,0.20269 0.524587,0.19075 0.918028,0.44112 0.739191,0.48883 1.311468,1.07302 l 4.900119,5.06704 v -4.26824 q -0.01192,-0.30997 -0.226526,-0.51266 -0.214603,-0.2146 -0.512664,-0.2146 h -0.226526 v -0.11922 h 4.36361 v 0.11922 h -0.214604 q -0.29806,0 -0.512664,0.2146 -0.214604,0.20269 -0.226526,0.50074 v 6.80771 l 0.214604,0.22653 q 0,0 0.274215,0.29806 0.286138,0.29806 0.381518,0.39344 0.107302,0.0954 0.417286,0.36959 0.309982,0.28614 0.500742,0.39344 0.190759,0.11924 0.524587,0.29807 0.333828,0.19076 0.608044,0.23844 0.309983,0.0715 0.655734,0.0715 0.34575,0 0.667656,-0.0954 z" />
    <path
       inkscape:connector-curvature="0"
       id="path862"
       style="font-style:normal;font-variant:normal;font-weight:normal;font-stretch:normal;font-size:medium;line-height:1.25;font-family:'Cinzel Decorative';-inkscape-font-specification:'Cinzel Decorative';letter-spacing:0px;word-spacing:0px;fill:#2e2e2e;fill-opacity:1;stroke:none;stroke-width:0.29806083"
       d="m 98.76327,146.32446 h -0.190759 q -0.250371,0 -0.44113,0.16692 -0.178837,0.15499 -0.190759,0.39344 v 4.72129 q 0,1.39492 -0.88226,2.25334 -0.88226,0.85841 -2.348719,0.85841 -1.46646,0 -2.384487,-0.84649 -0.906105,-0.85842 -0.906105,-2.25334 v -4.69744 q 0,-0.35767 -0.309984,-0.52459 -0.143069,-0.0715 -0.321905,-0.0715 h -0.190759 v -0.11922 h 2.420253 v 0.11922 h -0.190758 q -0.262293,0 -0.44113,0.16692 -0.178836,0.15499 -0.19076,0.40536 v 4.55437 q 0,1.29955 0.691502,2.09835 0.703423,0.7988 1.871822,0.7988 1.168399,0 1.895667,-0.75111 0.727268,-0.76304 0.727268,-1.99104 v -4.70937 q -0.01192,-0.25037 -0.190758,-0.40536 -0.178837,-0.16692 -0.44113,-0.16692 h -0.19076 v -0.11922 h 2.205651 z" />
    <path
       inkscape:connector-curvature="0"
       id="path864"
       style="font-style:normal;font-variant:normal;font-weight:normal;font-stretch:normal;font-size:medium;line-height:1.25;font-family:'Cinzel Decorative';-inkscape-font-specification:'Cinzel Decorative';letter-spacing:0px;word-spacing:0px;fill:#2e2e2e;fill-opacity:1;stroke:none;stroke-width:0.29806083"
       d="m 108.63691,146.32446 q -0.29806,0 -0.51267,0.21461 -0.2146,0.20268 -0.22652,0.50074 v 6.15198 q 0,0.69149 0.0834,1.31147 l 0.0238,0.2146 h -0.1073 l -6.49773,-6.93885 v 5.93737 q 0,0.29805 0.2146,0.51266 0.21461,0.20268 0.51267,0.20268 h 0.22653 v 0.11922 h -2.456026 v -0.11922 h 0.226526 q 0.29806,0 0.51267,-0.20268 0.2146,-0.21461 0.2146,-0.52459 v -6.18775 q 0,-0.72726 -0.0835,-1.29954 l -0.0238,-0.19075 h 0.11922 l 6.49773,6.93885 v -5.91353 q -0.0119,-0.30998 -0.22653,-0.51266 -0.2146,-0.21461 -0.51266,-0.21461 h -0.22653 v -0.11922 h 2.45602 v 0.11922 z" />
    <path
       inkscape:connector-curvature="0"
       id="path866"
       style="font-style:normal;font-variant:normal;font-weight:normal;font-stretch:normal;font-size:medium;line-height:1.25;font-family:'Cinzel Decorative';-inkscape-font-specification:'Cinzel Decorative';letter-spacing:0px;word-spacing:0px;fill:#2e2e2e;fill-opacity:1;stroke:none;stroke-width:0.29806083"
       d="m 110.15143,154.43172 q 0.30999,0 0.52459,-0.2146 0.22652,-0.22653 0.23845,-0.53651 v -6.67657 q 0,-0.28614 -0.22653,-0.47689 -0.22652,-0.20269 -0.53651,-0.20269 h -0.14307 l -0.0119,-0.11922 h 3.49327 q 0.3696,0 0.7988,-0.0715 0.44113,-0.0715 0.61997,-0.14307 v 1.50223 h -0.11922 v -0.21461 q 0,-0.28614 -0.20269,-0.48882 -0.19075,-0.20269 -0.46497,-0.2146 h -2.43218 v 3.68403 h 2.0149 q 0.23844,-0.0119 0.40536,-0.17884 0.16692,-0.16692 0.16692,-0.41729 v -0.1669 h 0.11922 v 1.88373 h -0.11922 v -0.17883 q 0,-0.23844 -0.16692,-0.40536 -0.15499,-0.16692 -0.39344,-0.17884 h -2.02682 v 3.56481 h 1.70491 q 0.88227,0 1.34724,-0.39344 0.46498,-0.39344 0.77495,-1.1684 h 0.11923 l -0.69151,1.93143 h -4.9478 v -0.11922 z" />
    <path
       inkscape:connector-curvature="0"
       id="path868"
       style="font-style:normal;font-variant:normal;font-weight:normal;font-stretch:normal;font-size:medium;line-height:1.25;font-family:'Cinzel Decorative';-inkscape-font-specification:'Cinzel Decorative';letter-spacing:0px;word-spacing:0px;fill:#2e2e2e;fill-opacity:1;stroke:none;stroke-width:0.29806083"
       d="m 126.88065,154.43172 h 0.19076 v 0.11922 h -2.58717 v -0.10735 h 0.17883 q 0.20269,0 0.34576,-0.15499 0.14307,-0.155 0.11922,-0.35768 l -0.53651,-5.99698 -2.50371,5.56778 q -0.33383,0.72726 -0.40536,1.21609 h -0.11922 l -3.05215,-6.61696 -0.51266,5.83007 q -0.0239,0.19076 0.11922,0.35768 0.14307,0.15499 0.34575,0.15499 h 0.17884 v 0.10735 h -2.31295 v -0.11922 h 0.19076 q 0.33382,0 0.57228,-0.20268 0.25037,-0.20269 0.29805,-0.54843 l 0.89419,-7.64228 h 0.11922 l 3.32635,7.18922 3.25483,-7.18922 h 0.10724 l 0.91804,7.64228 q 0.0477,0.34574 0.29805,0.54843 0.25037,0.20268 0.57228,0.20268 z" />
    <path
       inkscape:connector-curvature="0"
       id="path870"
       style="font-style:normal;font-variant:normal;font-weight:normal;font-stretch:normal;font-size:medium;line-height:1.25;font-family:'Cinzel Decorative';-inkscape-font-specification:'Cinzel Decorative';letter-spacing:0px;word-spacing:0px;fill:#2e2e2e;fill-opacity:1;stroke:none;stroke-width:0.29806083"
       d="m 135.79434,154.43172 h 0.0954 v 0.11922 h -2.68255 v -0.11922 h 0.10725 q 0.25037,0 0.36959,-0.155 0.13115,-0.1669 0.13115,-0.30997 0,-0.14307 -0.0477,-0.28614 l -0.76305,-2.02682 h -3.21905 l -0.7988,2.03874 q -0.0477,0.14307 -0.0477,0.28614 0,0.13115 0.11922,0.29805 0.13115,0.155 0.38152,0.155 h 0.10724 v 0.11922 h -2.39641 v -0.11922 h 0.10736 q 0.29806,0 0.5842,-0.19076 0.28614,-0.19076 0.46497,-0.56035 l 2.69447,-6.41428 q 0.44114,-0.96571 0.44114,-1.228 h 0.10735 l 3.19521,7.64228 q 0.16692,0.36959 0.45306,0.56035 0.28614,0.19076 0.59611,0.19076 z m -5.86584,-3.1356 h 2.93292 l -1.43069,-3.8271 z" />
    <path
       inkscape:connector-curvature="0"
       id="path872"
       style="font-style:normal;font-variant:normal;font-weight:normal;font-stretch:normal;font-size:medium;line-height:1.25;font-family:'Cinzel Decorative';-inkscape-font-specification:'Cinzel Decorative';letter-spacing:0px;word-spacing:0px;fill:#2e2e2e;fill-opacity:1;stroke:none;stroke-width:0.29806083"
       d="m 138.92865,154.43172 h 0.15499 v 0.11922 h -2.61101 v -0.11922 h 0.15498 q 0.30999,0 0.52459,-0.2146 0.22653,-0.22653 0.23846,-0.53651 v -6.61695 q -0.0119,-0.30999 -0.23846,-0.52459 -0.2146,-0.21461 -0.52459,-0.21461 h -0.15498 v -0.11922 h 2.61101 v 0.11922 h -0.15499 q -0.30999,0 -0.53651,0.21461 -0.2146,0.2146 -0.22653,0.52459 v 6.61695 q 0,0.30998 0.22653,0.53651 0.22652,0.2146 0.53651,0.2146 z m 4.79282,0.11922 h -0.51267 q -1.21609,0 -1.78837,-0.67957 l -2.8733,-3.46943 2.8137,-3.52905 q 0.0954,-0.11922 0.0954,-0.2146 0,-0.0954 -0.0358,-0.16691 -0.0954,-0.17883 -0.34574,-0.17883 h -0.11923 v -0.10725 h 2.51564 v 0.10725 h -0.0477 q -0.78689,0 -1.28763,0.56034 l -2.80177,3.24291 3.25483,3.8271 q 0.47689,0.47689 1.13263,0.48882 z" />
    <path
       inkscape:connector-curvature="0"
       id="path874"
       style="font-style:normal;font-variant:normal;font-weight:normal;font-stretch:normal;font-size:medium;line-height:1.25;font-family:'Cinzel Decorative';-inkscape-font-specification:'Cinzel Decorative';letter-spacing:0px;word-spacing:0px;fill:#2e2e2e;fill-opacity:1;stroke:none;stroke-width:0.29806083"
       d="m 144.45172,154.43172 q 0.30998,0 0.52458,-0.2146 0.22653,-0.22653 0.23845,-0.53651 v -6.67657 q 0,-0.28614 -0.22652,-0.47689 -0.22653,-0.20269 -0.53651,-0.20269 h -0.14307 l -0.0119,-0.11922 h 3.49328 q 0.36959,0 0.7988,-0.0715 0.44113,-0.0715 0.61997,-0.14307 v 1.50223 h -0.11923 v -0.21461 q 0,-0.28614 -0.20268,-0.48882 -0.19076,-0.20269 -0.46497,-0.2146 h -2.43218 v 3.68403 h 2.01489 q 0.23845,-0.0119 0.40536,-0.17884 0.16692,-0.16692 0.16692,-0.41729 v -0.1669 h 0.11922 v 1.88373 h -0.11922 v -0.17883 q 0,-0.23844 -0.16692,-0.40536 -0.15499,-0.16692 -0.39344,-0.17884 h -2.02681 v 3.56481 h 1.7049 q 0.88227,0 1.34724,-0.39344 0.46498,-0.39344 0.77496,-1.1684 h 0.11922 l -0.69149,1.93143 h -4.94782 v -0.11922 z" />
    <path
       inkscape:connector-curvature="0"
       id="path876"
       style="font-style:normal;font-variant:normal;font-weight:normal;font-stretch:normal;font-size:medium;line-height:1.25;font-family:'Cinzel Decorative';-inkscape-font-specification:'Cinzel Decorative';letter-spacing:0px;word-spacing:0px;fill:#2e2e2e;fill-opacity:1;stroke:none;stroke-width:0.29806083"
       d="m 153.50569,146.57484 h -0.76304 v 7.10577 q 0,0.30998 0.2146,0.53651 0.22654,0.2146 0.54844,0.2146 h 0.14307 l 0.0119,0.11922 h -2.61101 v -0.11922 h 0.15499 q 0.30998,0 0.52459,-0.2146 0.22652,-0.2146 0.23845,-0.52459 v -6.61695 q -0.0119,-0.30999 -0.23845,-0.52459 -0.21461,-0.22653 -0.52459,-0.22653 h -0.15499 v -0.11922 h 3.21906 q 1.08493,0 1.70491,0.60805 0.61996,0.59611 0.61996,1.56183 0,0.9538 -0.59612,1.65723 -0.5842,0.69149 -1.4307,0.69149 0.17884,0.0835 0.41729,0.33383 0.25037,0.23845 0.44113,0.50074 1.02533,1.46646 1.33532,1.81221 0.30997,0.33383 0.44112,0.46498 0.13116,0.11922 0.28614,0.23845 0.15499,0.11922 0.30999,0.19076 0.34574,0.16691 0.73918,0.16691 v 0.11922 h -0.65573 q -0.51266,0 -0.95379,-0.17883 -0.44113,-0.19076 -0.66765,-0.38152 -0.21461,-0.20268 -0.38153,-0.38151 -0.15498,-0.19077 -0.88226,-1.23994 -0.72726,-1.04917 -0.84648,-1.19224 -0.11924,-0.155 -0.25038,-0.29807 -0.38152,-0.40536 -0.76304,-0.40536 v -0.11922 q 0.0954,0.0119 0.25037,0.0119 0.155,0 0.38152,-0.0119 1.47838,-0.0357 1.8599,-1.23994 0.0715,-0.23845 0.0715,-0.44112 0,-0.21461 0,-0.27422 -0.0239,-0.7988 -0.41729,-1.28762 -0.39344,-0.48883 -1.06109,-0.5246 -0.28614,-0.0119 -0.71535,-0.0119 z" />
    <g
       aria-label="Blog"
       style="font-style:normal;font-variant:normal;font-weight:normal;font-stretch:normal;font-size:4.23333311px;line-height:1.25;font-family:Milkshake;-inkscape-font-specification:Milkshake;letter-spacing:0px;word-spacing:0px;fill:#2e2e2e;fill-opacity:1;stroke:none;stroke-width:0.26458332"
       id="text833"
       transform="matrix(1.1265292,0,0,1.1265292,-4.0086436,-19.926972)">
      <path
         d="m 145.75597,154.67816 c 0,0 -0.14394,-0.0466 -0.26247,-0.0466 -0.1143,0 -0.2159,0.0677 -0.2159,0.1905 0,0.11007 0.1016,0.18204 0.22437,0.18204 0.0931,0 0.2159,-0.0508 0.2159,-0.0508 0.11853,0.0127 0.26246,0.18203 0.26246,0.4572 0,0.3556 -0.2794,0.5842 -0.59266,0.5842 -0.23284,0 -0.46144,-0.11007 -0.69427,-0.2413 0.0339,-0.055 0.0677,-0.11007 0.1016,-0.17357 0.2794,-0.4953 0.56303,-1.36737 0.61383,-1.4859 0.1016,-0.22437 0.24554,-0.3556 0.24554,-0.38947 0,-0.0339 -0.0127,-0.0593 -0.072,-0.0593 -0.0974,0 -0.31327,0.0381 -0.51647,0.17356 -0.17356,0.11007 -0.4826,1.21074 -0.71543,1.63407 l -0.0466,0.0804 c -0.20743,-0.10583 -0.4191,-0.1905 -0.63923,-0.1905 -0.24553,0 -0.54187,0.18627 -0.54187,0.49954 0,0.29633 0.3302,0.4826 0.67734,0.4826 0.3048,0 0.5207,-0.11007 0.7112,-0.32597 0.30903,0.1651 0.65616,0.32597 1.03716,0.32597 0.44027,0 0.9652,-0.23707 0.9652,-0.80434 0,-0.50376 -0.4699,-0.69426 -0.4826,-0.6985 0.0296,-0.008 0.61384,-0.28786 0.61384,-0.78316 0,-0.5461 -0.59267,-0.82127 -1.23614,-0.82127 -0.9017,0 -1.79916,0.49107 -1.79916,1.12183 0,0.33444 0.44873,0.54187 0.6731,0.54187 0.0593,0 0.0889,-0.0212 0.0889,-0.0804 0,-0.055 -0.20744,-0.13547 -0.20744,-0.3937 0,-0.51224 0.45297,-0.94827 1.23614,-0.94827 0.381,0 0.75353,0.20743 0.75353,0.59267 0,0.4191 -0.39793,0.62653 -0.39793,0.62653 z m -2.06164,0.98637 c 0.13547,0 0.28364,0.055 0.4445,0.13546 -0.127,0.1778 -0.24553,0.2667 -0.4191,0.2667 -0.13546,0 -0.24976,-0.0762 -0.24976,-0.1905 0,-0.1143 0.0931,-0.21166 0.22436,-0.21166 z"
         style="stroke-width:0.26458332;fill:#2e2e2e;fill-opacity:1"
         id="path839"
         inkscape:connector-curvature="0" />
      <path
         d="m 148.07014,153.67909 c 0,0.25824 -0.4826,1.17687 -0.7747,1.41817 0.17357,-0.70697 0.5715,-1.47743 0.7239,-1.47743 0.0296,0 0.0508,0.0212 0.0508,0.0593 z m -0.74083,2.64584 c 0.4191,0 0.72813,-0.5207 0.72813,-0.5207 0,0 0.0381,-0.0635 0.0381,-0.1016 0,-0.0466 -0.0423,-0.0847 -0.0889,-0.0847 -0.0508,0 -0.0847,0.0593 -0.0847,0.0593 0,0 -0.22437,0.36406 -0.45297,0.36406 -0.17357,0 -0.27093,-0.1397 -0.27093,-0.33443 0,-0.14817 0.0339,-0.32173 0.0339,-0.32173 0.42334,-0.35984 1.04987,-1.34197 1.04987,-1.7018 0,-0.1524 -0.1651,-0.34714 -0.3556,-0.34714 -0.6096,0 -1.24037,1.50284 -1.24037,2.35374 0,0.39793 0.30904,0.635 0.64347,0.635 z"
         style="stroke-width:0.26458332;fill:#2e2e2e;fill-opacity:1"
         id="path841"
         inkscape:connector-curvature="0" />
      <path
         d="m 149.93771,155.80423 c 0,0 0.0381,-0.0635 0.0381,-0.1016 0,-0.0466 -0.0423,-0.0847 -0.0889,-0.0847 -0.0508,0 -0.0847,0.0593 -0.0847,0.0593 0,0 -0.21167,0.28786 -0.49953,0.28786 -0.0254,0 -0.0466,-0.004 -0.0677,-0.008 0.1651,-0.21167 0.26247,-0.47837 0.26247,-0.70274 0,-0.38946 -0.27093,-0.62653 -0.6223,-0.62653 -0.44027,0 -0.98213,0.38947 -0.98213,1.10067 0,0.3302 0.30903,0.5969 0.6604,0.5969 0.18203,0 0.34713,-0.0635 0.4826,-0.16934 0.0593,0.008 0.1143,0.0127 0.1651,0.0127 0.4953,0 0.7366,-0.36406 0.7366,-0.36406 z m -1.54517,0.0296 c 0,-0.5715 0.29633,-0.9906 0.48683,-0.9906 0.0974,0 0.1651,0.0762 0.1651,0.2667 0,0.18627 -0.0466,0.44873 -0.13123,0.6604 -0.0127,-0.004 -0.0296,-0.008 -0.0466,-0.008 -0.0677,0 -0.21166,0.1143 -0.21166,0.20744 0,0.0381 0.0254,0.072 0.072,0.1016 -0.0423,0.0339 -0.0847,0.0508 -0.13123,0.0508 -0.127,0 -0.2032,-0.11854 -0.2032,-0.28787 z"
         style="stroke-width:0.26458332;fill:#2e2e2e;fill-opacity:1"
         id="path843"
         inkscape:connector-curvature="0" />
      <path
         d="m 151.47996,155.02529 c 0,-0.14816 -0.17356,-0.19896 -0.30056,-0.19896 0,0 -0.11854,-0.19897 -0.46144,-0.19897 -0.46566,0 -0.97366,0.6477 -0.97366,1.2573 0,0.25823 0.19473,0.44027 0.42333,0.44027 0.32173,0 0.60113,-0.35984 0.60113,-0.35984 -0.0169,0.0931 -0.0466,0.23284 -0.0847,0.381 -0.54187,0.20744 -0.90594,0.4445 -0.90594,0.74084 0,0.22436 0.22014,0.40216 0.47837,0.40216 0.53763,0 0.75353,-0.6096 0.889,-1.13453 0.39793,-0.19473 0.5969,-0.3556 0.74083,-0.55033 0,0 0.0466,-0.0677 0.0466,-0.1016 0,-0.0466 -0.0381,-0.0847 -0.0889,-0.0847 -0.0508,0 -0.0931,0.0593 -0.0931,0.0593 -0.11854,0.16086 -0.28787,0.3048 -0.5461,0.4445 l 0.0381,-0.1397 c 0.13123,-0.4826 0.23706,-0.87207 0.23706,-0.95674 z m -0.51646,0.0296 c 0,0.32596 -0.37677,0.94826 -0.57997,0.94826 -0.0889,0 -0.12277,-0.0677 -0.12277,-0.1905 0,-0.3556 0.30057,-0.9398 0.5461,-0.9398 0.0847,0 0.15664,0.0593 0.15664,0.18204 z m -0.8128,2.2098 c -0.0466,0 -0.0762,-0.0296 -0.0762,-0.0847 0,-0.127 0.21166,-0.40217 0.53763,-0.5842 -0.11007,0.3429 -0.2667,0.66887 -0.46143,0.66887 z"
         style="stroke-width:0.26458332;fill:#2e2e2e;fill-opacity:1"
         id="path845"
         inkscape:connector-curvature="0" />
    </g>
  </g>
</svg>
